name C:\Users\u0101727\Documents\MyRepositories\paper-ad\trackingsimulations_3d\Results\TrackSim\IK_c14.mot
datacolumns 32
datarows 8
range 3.85000000 3.96200000
endheader
time	pelvis_tilt	pelvis_list	pelvis_rotation	pelvis_tx	pelvis_ty	pelvis_tz	hip_flexion_l	hip_adduction_l	hip_rotation_l	hip_flexion_r	hip_adduction_r	hip_rotation_r	knee_angle_l	knee_angle_r	ankle_angle_l	ankle_angle_r	subtalar_angle_l	subtalar_angle_r	lumbar_extension	lumbar_bending	lumbar_rotation	arm_flex_l	arm_add_l	arm_rot_l	arm_flex_r	arm_add_r	arm_rot_r	elbow_flex_l	elbow_flex_r	pro_sup_l	pro_sup_r	
          3.85000000	          0.29881861	         -3.01502268	          7.10796419	          0.02712107	          0.92245704	         -0.22396522	        -11.47976297	         -4.77444402	          1.36516069	         26.52077006	          4.43919200	         -7.54643444	        -36.11398652	        -22.75368420	         -4.19663588	         -5.99573553	         13.31927547	        -10.99682397	         -3.96255710	          5.51978866	         -8.62506987	         -1.76252343	        -14.53216537	         19.20459586	         -9.28493946	        -15.61471240	         14.50149810	         22.96787075	         11.49073002	         86.51662706	         86.51662706	
          3.86600000	          0.45778294	         -4.04925431	          6.94034159	          0.05083659	          0.92323204	         -0.22271416	         -9.50661850	         -6.00890443	          1.22688178	         25.60246426	          5.87483951	         -7.47645095	        -40.40010690	        -24.03193380	        -10.30760597	         -4.01985543	         11.94858153	        -11.16057175	         -3.76682046	          6.84866826	         -8.19131259	         -2.26215831	        -14.03058258	         19.48326824	         -9.06001722	        -15.91092975	         14.48120791	         21.88258837	         11.80910885	         86.51662706	         86.51662706	
          3.88200000	          0.65029201	         -4.89802813	          6.86123095	          0.07367935	          0.92455597	         -0.22171281	         -7.18361064	         -6.85872696	          1.79836890	         24.31721493	          7.06275149	         -7.50918560	        -44.73648553	        -24.71885220	        -15.46823194	         -2.01270508	         10.75808220	        -10.96360777	         -3.75256631	          7.95948070	         -7.77295084	         -2.62435178	        -13.59463362	         19.90589572	         -8.72951475	        -16.20594363	         14.34659696	         20.83896701	         12.32942980	         86.51662706	         86.51662706	
          3.89800000	          0.86105615	         -5.59271176	          6.87867145	          0.09558242	          0.92640113	         -0.22092794	         -4.54232232	         -7.37012891	          2.79011216	         22.75841285	          8.05045333	         -7.59898000	        -49.18193044	        -24.88536859	        -18.09402539	         -0.18892167	          9.72892013	        -10.59111136	         -3.89940457	          8.88243458	         -7.35963745	         -2.83791719	        -13.23987802	         20.47496851	         -8.31130104	        -16.50372263	         14.11707272	         19.88613688	         13.07865645	         86.51662706	         86.51662706	
          3.91400000	          1.08655246	         -6.11420471	          7.01297634	          0.11664597	          0.92880853	         -0.22035736	         -1.69108483	         -7.54505097	          4.01129613	         20.98082629	          8.82449772	         -7.72755936	        -53.41243540	        -24.61538346	        -19.13506397	          1.37590736	          8.06222931	        -10.11931101	         -4.17929971	          9.59188804	         -6.97532780	         -2.92700016	        -12.98489241	         21.15490606	         -7.84564976	        -16.80052473	         13.81768964	         19.06445996	         14.08685662	         86.51662706	         86.51662706	
          3.93000000	          1.30356927	         -6.40589147	          7.26105477	          0.13702321	          0.93176813	         -0.21997561	          1.33779443	         -7.33947484	          5.39288018	         19.05292243	          9.32973492	         -7.88267245	        -57.34212060	        -24.01850986	        -18.53789457	          2.70408892	          6.42251425	         -9.55586584	         -4.53776972	         10.01496911	         -6.64027892	         -2.93444178	        -12.84560725	         21.87289357	         -7.37179933	        -17.08379413	         13.47518485	         18.39622239	         15.36138152	         86.51662706	         86.51662706	
          3.94600000	          1.48422410	         -6.44748067	          7.58371740	          0.15691048	          0.93517089	         -0.21971574	          4.48145085	         -6.75640353	          6.79742285	         17.04118772	          9.55206581	         -8.05907499	        -60.79731600	        -23.19400458	        -16.78566210	          3.83110400	          5.05473419	         -8.88868818	         -4.90875592	         10.12031344	         -6.34762463	         -2.91796038	        -12.82259180	         22.53618867	         -6.91946210	        -17.34920720	         13.10969696	         17.89969187	         16.87588627	         86.51662706	         86.51662706	
          3.96200000	          1.59457587	         -6.25291932	          7.88770584	          0.17650204	          0.93883641	         -0.21944255	          7.66302350	         -5.85299447	          8.02019034	         15.01541015	          9.52791976	         -8.20270636	        -63.58164551	        -22.22677423	        -14.43679142	          4.76868435	          3.90597721	         -8.16124797	         -5.22915605	          9.91442780	         -6.03397318	         -2.93914081	        -12.90225506	         23.04455426	         -6.50663108	        -17.59974509	         12.73791701	         17.59485222	         18.57617318	         86.51662706	         86.51662706	
